<?xml version="1.0" encoding="utf-8"?>
<!-- Generator: Adobe Illustrator 22.1.0, SVG Export Plug-In . SVG Version: 6.00 Build 0)  -->
<svg version="1.1" id="Capa_1" xmlns="http://www.w3.org/2000/svg" xmlns:xlink="http://www.w3.org/1999/xlink" x="0px" y="0px"
	 viewBox="0 0 234 234" style="enable-background:new 0 0 234 234;" xml:space="preserve">
<style type="text/css">
	.st0{fill:#FFFFFF;}
</style>
<g>
	<path class="st0" d="M186.6,197c-45-4.4-18.5-81.8-9.1-75.1c19.5,9.6,18.5-13.5,49.9,15.4c12.7-37.1,5.7-66.8-9.5-56.9
		c-18.8,13.5-35.7,20.3-32.4,10C220.9-5.2,63.8-32.3,51.7,73.8C44.8,87,21.1,60.2,11.8,61.1C-0.5,64.4-3,83,3.5,115.5
		c26.1-25.1,24.6-8.3,45.2-11.3C54.3,189,94,234.4,187.5,217.4c18.2-4.1,33.2,1.2,46.5,11C232.6,211.3,216.9,200.8,186.6,197z
		 M83.1,41.9l28.9,28.4C92.5,80.1,71.8,62.5,83.1,41.9z M150,102.3L150,102.3c-2.1,5.6-5.8,11.3-11.1,17l-4.1-6.5l-9.6,10.7
		l-6.5-11.4l-9.8,12.5l-3.7-15l-9.5,9.7l-3.5-18L82,110.3l-0.7-15.9l-4.5,3.4c-0.5-2.9-0.9-8.1-1.2-15.7
		c5.8,11.3,16.1,19.2,30.7,23.7c2.1,0.5,4.5,0.9,7.4,1.2C126.7,108.4,138.8,106.8,150,102.3L150,102.3L150,102.3z M134.3,73.5
		L171.7,58C174.4,81.4,148.7,89.9,134.3,73.5z"/>
</g>
</svg>
